<?xml version="1.0" encoding="us-ascii" standalone="no"?><svg xmlns="http://www.w3.org/2000/svg" xmlns:xlink="http://www.w3.org/1999/xlink" contentStyleType="text/css" height="460px" preserveAspectRatio="none" style="width:272px;height:460px;background:#FFFFFF;" version="1.1" viewBox="0 0 272 460" width="272px" zoomAndPan="magnify"><defs/><g><ellipse cx="136" cy="20" fill="#222222" rx="10" ry="10" style="stroke:#222222;stroke-width:1.0;"/><rect fill="#F1F1F1" height="33.9688" rx="12.5" ry="12.5" style="stroke:#181818;stroke-width:0.5;" width="189" x="41.5" y="50"/><text fill="#000000" font-family="sans-serif" font-size="12" lengthAdjust="spacing" textLength="169" x="51.5" y="71.1387">Mode_e = Tool_modeIdle_e</text><rect fill="#F1F1F1" height="33.9688" rx="12.5" ry="12.5" style="stroke:#181818;stroke-width:0.5;" width="135" x="68.5" y="103.9688"/><text fill="#000000" font-family="sans-serif" font-size="12" lengthAdjust="spacing" textLength="115" x="78.5" y="125.1074">StatusFlg_u32 = 0</text><rect fill="#F1F1F1" height="33.9688" rx="12.5" ry="12.5" style="stroke:#181818;stroke-width:0.5;" width="109" x="81.5" y="157.9375"/><text fill="#000000" font-family="sans-serif" font-size="12" lengthAdjust="spacing" textLength="89" x="91.5" y="179.0762">Head_u32 = 0</text><rect fill="#F1F1F1" height="33.9688" rx="12.5" ry="12.5" style="stroke:#181818;stroke-width:0.5;" width="97" x="87.5" y="211.9063"/><text fill="#000000" font-family="sans-serif" font-size="12" lengthAdjust="spacing" textLength="77" x="97.5" y="233.0449">Tail_u32 = 0</text><rect fill="#F1F1F1" height="33.9688" rx="12.5" ry="12.5" style="stroke:#181818;stroke-width:0.5;" width="113" x="79.5" y="265.875"/><text fill="#000000" font-family="sans-serif" font-size="12" lengthAdjust="spacing" textLength="93" x="89.5" y="287.0137">Count_u32 = 0</text><rect fill="#F1F1F1" height="33.9688" rx="12.5" ry="12.5" style="stroke:#181818;stroke-width:0.5;" width="250" x="11" y="319.8438"/><text fill="#000000" font-family="sans-serif" font-size="12" lengthAdjust="spacing" textLength="230" x="21" y="340.9824">for i in [0..TOOL_BUFFER_SIZE_U32-1]</text><rect fill="#F1F1F1" height="33.9688" rx="12.5" ry="12.5" style="stroke:#181818;stroke-width:0.5;" width="118" x="77" y="373.8125"/><text fill="#000000" font-family="sans-serif" font-size="12" lengthAdjust="spacing" textLength="98" x="87" y="394.9512">Buffer_u8[i] = 0</text><ellipse cx="136" cy="438.7813" fill="none" rx="11" ry="11" style="stroke:#222222;stroke-width:1.0;"/><ellipse cx="136" cy="438.7813" fill="#222222" rx="6" ry="6" style="stroke:#222222;stroke-width:1.0;"/><line style="stroke:#181818;stroke-width:1.0;" x1="136" x2="136" y1="30" y2="50"/><polygon fill="#181818" points="132,40,136,50,140,40,136,44" style="stroke:#181818;stroke-width:1.0;"/><line style="stroke:#181818;stroke-width:1.0;" x1="136" x2="136" y1="83.9688" y2="103.9688"/><polygon fill="#181818" points="132,93.9688,136,103.9688,140,93.9688,136,97.9688" style="stroke:#181818;stroke-width:1.0;"/><line style="stroke:#181818;stroke-width:1.0;" x1="136" x2="136" y1="137.9375" y2="157.9375"/><polygon fill="#181818" points="132,147.9375,136,157.9375,140,147.9375,136,151.9375" style="stroke:#181818;stroke-width:1.0;"/><line style="stroke:#181818;stroke-width:1.0;" x1="136" x2="136" y1="191.9063" y2="211.9063"/><polygon fill="#181818" points="132,201.9063,136,211.9063,140,201.9063,136,205.9063" style="stroke:#181818;stroke-width:1.0;"/><line style="stroke:#181818;stroke-width:1.0;" x1="136" x2="136" y1="245.875" y2="265.875"/><polygon fill="#181818" points="132,255.875,136,265.875,140,255.875,136,259.875" style="stroke:#181818;stroke-width:1.0;"/><line style="stroke:#181818;stroke-width:1.0;" x1="136" x2="136" y1="299.8438" y2="319.8438"/><polygon fill="#181818" points="132,309.8438,136,319.8438,140,309.8438,136,313.8438" style="stroke:#181818;stroke-width:1.0;"/><line style="stroke:#181818;stroke-width:1.0;" x1="136" x2="136" y1="353.8125" y2="373.8125"/><polygon fill="#181818" points="132,363.8125,136,373.8125,140,363.8125,136,367.8125" style="stroke:#181818;stroke-width:1.0;"/><line style="stroke:#181818;stroke-width:1.0;" x1="136" x2="136" y1="407.7813" y2="427.7813"/><polygon fill="#181818" points="132,417.7813,136,427.7813,140,417.7813,136,421.7813" style="stroke:#181818;stroke-width:1.0;"/><!--SRC=[Aov9B2hXilBDJqcDJrMmLGZ9py-9pmNoF5DoW2BMN5R19OabfSLkEUdnfSP6G1K6G36FrCGK96v8OcOE4jSvlpIl18cVbb-aaAcGcQSGRQ2d5-BlxnFl5EhcvXeK7-mPvHeVQcoaQnWBLEPKcfQMMXHVQX6T6GlHMLoINm00]--></g></svg>