<?xml version="1.0" encoding="us-ascii" standalone="no"?><svg xmlns="http://www.w3.org/2000/svg" xmlns:xlink="http://www.w3.org/1999/xlink" contentStyleType="text/css" height="460px" preserveAspectRatio="none" style="width:314px;height:460px;background:#FFFFFF;" version="1.1" viewBox="0 0 314 460" width="314px" zoomAndPan="magnify"><defs/><g><ellipse cx="157" cy="20" fill="#222222" rx="10" ry="10" style="stroke:#222222;stroke-width:1.0;"/><rect fill="#F1F1F1" height="33.9688" rx="12.5" ry="12.5" style="stroke:#181818;stroke-width:0.5;" width="109" x="102.5" y="50"/><text fill="#000000" font-family="sans-serif" font-size="12" lengthAdjust="spacing" textLength="89" x="112.5" y="71.1387">Head_u32 = 0</text><rect fill="#F1F1F1" height="33.9688" rx="12.5" ry="12.5" style="stroke:#181818;stroke-width:0.5;" width="97" x="108.5" y="103.9688"/><text fill="#000000" font-family="sans-serif" font-size="12" lengthAdjust="spacing" textLength="77" x="118.5" y="125.1074">Tail_u32 = 0</text><rect fill="#F1F1F1" height="33.9688" rx="12.5" ry="12.5" style="stroke:#181818;stroke-width:0.5;" width="113" x="100.5" y="157.9375"/><text fill="#000000" font-family="sans-serif" font-size="12" lengthAdjust="spacing" textLength="93" x="110.5" y="179.0762">Count_u32 = 0</text><rect fill="#F1F1F1" height="33.9688" rx="12.5" ry="12.5" style="stroke:#181818;stroke-width:0.5;" width="250" x="32" y="211.9063"/><text fill="#000000" font-family="sans-serif" font-size="12" lengthAdjust="spacing" textLength="230" x="42" y="233.0449">for i in [0..TOOL_BUFFER_SIZE_U32-1]</text><rect fill="#F1F1F1" height="33.9688" rx="12.5" ry="12.5" style="stroke:#181818;stroke-width:0.5;" width="118" x="98" y="265.875"/><text fill="#000000" font-family="sans-serif" font-size="12" lengthAdjust="spacing" textLength="98" x="108" y="287.0137">Buffer_u8[i] = 0</text><rect fill="#F1F1F1" height="33.9688" rx="12.5" ry="12.5" style="stroke:#181818;stroke-width:0.5;" width="292" x="11" y="319.8438"/><text fill="#000000" font-family="sans-serif" font-size="12" lengthAdjust="spacing" textLength="272" x="21" y="340.9824">StatusFlg_u32 &amp;= ~TOOL_STATUS_ERR_U32</text><rect fill="#F1F1F1" height="33.9688" rx="12.5" ry="12.5" style="stroke:#181818;stroke-width:0.5;" width="292" x="11" y="373.8125"/><text fill="#000000" font-family="sans-serif" font-size="12" lengthAdjust="spacing" textLength="272" x="21" y="394.9512">StatusFlg_u32 &amp;= ~TOOL_STATUS_OVF_U32</text><ellipse cx="157" cy="438.7813" fill="none" rx="11" ry="11" style="stroke:#222222;stroke-width:1.0;"/><ellipse cx="157" cy="438.7813" fill="#222222" rx="6" ry="6" style="stroke:#222222;stroke-width:1.0;"/><line style="stroke:#181818;stroke-width:1.0;" x1="157" x2="157" y1="30" y2="50"/><polygon fill="#181818" points="153,40,157,50,161,40,157,44" style="stroke:#181818;stroke-width:1.0;"/><line style="stroke:#181818;stroke-width:1.0;" x1="157" x2="157" y1="83.9688" y2="103.9688"/><polygon fill="#181818" points="153,93.9688,157,103.9688,161,93.9688,157,97.9688" style="stroke:#181818;stroke-width:1.0;"/><line style="stroke:#181818;stroke-width:1.0;" x1="157" x2="157" y1="137.9375" y2="157.9375"/><polygon fill="#181818" points="153,147.9375,157,157.9375,161,147.9375,157,151.9375" style="stroke:#181818;stroke-width:1.0;"/><line style="stroke:#181818;stroke-width:1.0;" x1="157" x2="157" y1="191.9063" y2="211.9063"/><polygon fill="#181818" points="153,201.9063,157,211.9063,161,201.9063,157,205.9063" style="stroke:#181818;stroke-width:1.0;"/><line style="stroke:#181818;stroke-width:1.0;" x1="157" x2="157" y1="245.875" y2="265.875"/><polygon fill="#181818" points="153,255.875,157,265.875,161,255.875,157,259.875" style="stroke:#181818;stroke-width:1.0;"/><line style="stroke:#181818;stroke-width:1.0;" x1="157" x2="157" y1="299.8438" y2="319.8438"/><polygon fill="#181818" points="153,309.8438,157,319.8438,161,309.8438,157,313.8438" style="stroke:#181818;stroke-width:1.0;"/><line style="stroke:#181818;stroke-width:1.0;" x1="157" x2="157" y1="353.8125" y2="373.8125"/><polygon fill="#181818" points="153,363.8125,157,373.8125,161,363.8125,157,367.8125" style="stroke:#181818;stroke-width:1.0;"/><line style="stroke:#181818;stroke-width:1.0;" x1="157" x2="157" y1="407.7813" y2="427.7813"/><polygon fill="#181818" points="153,417.7813,157,427.7813,161,417.7813,157,421.7813" style="stroke:#181818;stroke-width:1.0;"/><!--SRC=[Aov9B2hXil98JKo9BpKsKh1LCB3ciWf9pCn1uZhdb-QL8F7JyeiKCXKoynIY3VJqGlpzVUATGjtSN8FYWpsZNED3ZOrq3ME1ofnAqz9IY-9BBQ8pOw4wWqiIIqgBtNBImQQfsIhKWRK7XpY6X0R7kmO5WNGJLESVvWPHLroINm00]--></g></svg>