<?xml version="1.0" encoding="us-ascii" standalone="no"?><svg xmlns="http://www.w3.org/2000/svg" xmlns:xlink="http://www.w3.org/1999/xlink" contentStyleType="text/css" height="346px" preserveAspectRatio="none" style="width:916px;height:346px;background:#FFFFFF;" version="1.1" viewBox="0 0 916 346" width="916px" zoomAndPan="magnify"><defs/><g><ellipse cx="378" cy="20" fill="#222222" rx="10" ry="10" style="stroke:#222222;stroke-width:1.0;"/><polygon fill="#F1F1F1" points="240,50,516,50,528,62,516,74,240,74,228,62,240,50" style="stroke:#181818;stroke-width:0.5;"/><text fill="#000000" font-family="sans-serif" font-size="11" lengthAdjust="spacing" textLength="276" x="240" y="65.8081">(StatusFlg_u32 &amp; TOOL_STATUS_INIT_U32) == 0</text><text fill="#000000" font-family="sans-serif" font-size="11" lengthAdjust="spacing" textLength="39" x="189" y="59.4058">not init</text><text fill="#000000" font-family="sans-serif" font-size="11" lengthAdjust="spacing" textLength="17" x="528" y="59.4058">init</text><rect fill="#F1F1F1" height="33.9688" rx="12.5" ry="12.5" style="stroke:#181818;stroke-width:0.5;" width="276" x="11" y="84"/><text fill="#000000" font-family="sans-serif" font-size="12" lengthAdjust="spacing" textLength="256" x="21" y="105.1387">StatusFlg_u32 |= TOOL_STATUS_ERR_U32</text><rect fill="#F1F1F1" height="33.9688" rx="12.5" ry="12.5" style="stroke:#181818;stroke-width:0.5;" width="71" x="113.5" y="152.9688"/><text fill="#000000" font-family="sans-serif" font-size="12" lengthAdjust="spacing" textLength="51" x="123.5" y="174.1074">return 1</text><polygon fill="#F1F1F1" points="564,84,650,84,662,96,650,108,564,108,552,96,564,84" style="stroke:#181818;stroke-width:0.5;"/><text fill="#000000" font-family="sans-serif" font-size="11" lengthAdjust="spacing" textLength="86" x="564" y="99.8081">mode is invalid</text><text fill="#000000" font-family="sans-serif" font-size="11" lengthAdjust="spacing" textLength="36" x="516" y="93.4058">invalid</text><text fill="#000000" font-family="sans-serif" font-size="11" lengthAdjust="spacing" textLength="26" x="662" y="93.4058">valid</text><rect fill="#F1F1F1" height="33.9688" rx="12.5" ry="12.5" style="stroke:#181818;stroke-width:0.5;" width="276" x="317" y="118"/><text fill="#000000" font-family="sans-serif" font-size="12" lengthAdjust="spacing" textLength="256" x="327" y="139.1387">StatusFlg_u32 |= TOOL_STATUS_ERR_U32</text><rect fill="#F1F1F1" height="33.9688" rx="12.5" ry="12.5" style="stroke:#181818;stroke-width:0.5;" width="71" x="419.5" y="186.9688"/><text fill="#000000" font-family="sans-serif" font-size="12" lengthAdjust="spacing" textLength="51" x="429.5" y="208.1074">return 2</text><rect fill="#F1F1F1" height="33.9688" rx="12.5" ry="12.5" style="stroke:#181818;stroke-width:0.5;" width="121" x="698.5" y="118"/><text fill="#000000" font-family="sans-serif" font-size="12" lengthAdjust="spacing" textLength="101" x="708.5" y="139.1387">Mode_e = mode</text><rect fill="#F1F1F1" height="33.9688" rx="12.5" ry="12.5" style="stroke:#181818;stroke-width:0.5;" width="292" x="613" y="186.9688"/><text fill="#000000" font-family="sans-serif" font-size="12" lengthAdjust="spacing" textLength="272" x="623" y="208.1074">StatusFlg_u32 &amp;= ~TOOL_STATUS_ERR_U32</text><rect fill="#F1F1F1" height="33.9688" rx="12.5" ry="12.5" style="stroke:#181818;stroke-width:0.5;" width="71" x="723.5" y="240.9375"/><text fill="#000000" font-family="sans-serif" font-size="12" lengthAdjust="spacing" textLength="51" x="733.5" y="262.0762">return 0</text><polygon fill="#F1F1F1" points="607,280.9063,619,292.9063,607,304.9063,595,292.9063,607,280.9063" style="stroke:#181818;stroke-width:0.5;"/><polygon fill="#F1F1F1" points="378,310.9063,390,322.9063,378,334.9063,366,322.9063,378,310.9063" style="stroke:#181818;stroke-width:0.5;"/><line style="stroke:#181818;stroke-width:1.0;" x1="149" x2="149" y1="117.9688" y2="152.9688"/><polygon fill="#181818" points="145,142.9688,149,152.9688,153,142.9688,149,146.9688" style="stroke:#181818;stroke-width:1.0;"/><line style="stroke:#181818;stroke-width:1.0;" x1="455" x2="455" y1="151.9688" y2="186.9688"/><polygon fill="#181818" points="451,176.9688,455,186.9688,459,176.9688,455,180.9688" style="stroke:#181818;stroke-width:1.0;"/><line style="stroke:#181818;stroke-width:1.0;" x1="759" x2="759" y1="151.9688" y2="186.9688"/><polygon fill="#181818" points="755,176.9688,759,186.9688,763,176.9688,759,180.9688" style="stroke:#181818;stroke-width:1.0;"/><line style="stroke:#181818;stroke-width:1.0;" x1="759" x2="759" y1="220.9375" y2="240.9375"/><polygon fill="#181818" points="755,230.9375,759,240.9375,763,230.9375,759,234.9375" style="stroke:#181818;stroke-width:1.0;"/><line style="stroke:#181818;stroke-width:1.0;" x1="552" x2="455" y1="96" y2="96"/><line style="stroke:#181818;stroke-width:1.0;" x1="455" x2="455" y1="96" y2="118"/><polygon fill="#181818" points="451,108,455,118,459,108,455,112" style="stroke:#181818;stroke-width:1.0;"/><line style="stroke:#181818;stroke-width:1.0;" x1="662" x2="759" y1="96" y2="96"/><line style="stroke:#181818;stroke-width:1.0;" x1="759" x2="759" y1="96" y2="118"/><polygon fill="#181818" points="755,108,759,118,763,108,759,112" style="stroke:#181818;stroke-width:1.0;"/><line style="stroke:#181818;stroke-width:1.0;" x1="455" x2="455" y1="220.9375" y2="292.9063"/><line style="stroke:#181818;stroke-width:1.0;" x1="455" x2="595" y1="292.9063" y2="292.9063"/><polygon fill="#181818" points="585,288.9063,595,292.9063,585,296.9063,589,292.9063" style="stroke:#181818;stroke-width:1.0;"/><line style="stroke:#181818;stroke-width:1.0;" x1="759" x2="759" y1="274.9063" y2="292.9063"/><line style="stroke:#181818;stroke-width:1.0;" x1="759" x2="619" y1="292.9063" y2="292.9063"/><polygon fill="#181818" points="629,288.9063,619,292.9063,629,296.9063,625,292.9063" style="stroke:#181818;stroke-width:1.0;"/><line style="stroke:#181818;stroke-width:1.0;" x1="228" x2="149" y1="62" y2="62"/><line style="stroke:#181818;stroke-width:1.0;" x1="149" x2="149" y1="62" y2="84"/><polygon fill="#181818" points="145,74,149,84,153,74,149,78" style="stroke:#181818;stroke-width:1.0;"/><line style="stroke:#181818;stroke-width:1.0;" x1="528" x2="607" y1="62" y2="62"/><line style="stroke:#181818;stroke-width:1.0;" x1="607" x2="607" y1="62" y2="84"/><polygon fill="#181818" points="603,74,607,84,611,74,607,78" style="stroke:#181818;stroke-width:1.0;"/><line style="stroke:#181818;stroke-width:1.0;" x1="149" x2="149" y1="186.9375" y2="322.9063"/><line style="stroke:#181818;stroke-width:1.0;" x1="149" x2="366" y1="322.9063" y2="322.9063"/><polygon fill="#181818" points="356,318.9063,366,322.9063,356,326.9063,360,322.9063" style="stroke:#181818;stroke-width:1.0;"/><line style="stroke:#181818;stroke-width:1.0;" x1="607" x2="607" y1="304.9063" y2="322.9063"/><line style="stroke:#181818;stroke-width:1.0;" x1="607" x2="390" y1="322.9063" y2="322.9063"/><polygon fill="#181818" points="400,318.9063,390,322.9063,400,326.9063,396,322.9063" style="stroke:#181818;stroke-width:1.0;"/><line style="stroke:#181818;stroke-width:1.0;" x1="378" x2="378" y1="30" y2="50"/><polygon fill="#181818" points="374,40,378,50,382,40,378,44" style="stroke:#181818;stroke-width:1.0;"/><!--SRC=[bOx12e9054NtynLt9UEkT9VCeaM1K0awhWV1iGPi1EVPAlhs74DA2ABDWmltdlCSLJqnqu3pWYeQtBuzgo6E441csK4LSYlBGgMdLAeoZa88WLK8kcWBRZk2iOP21coMyxjOx7TvxkU9B_QQXjvYdJ3TEWq-4_mJrwxMC6watghMrBDeZcFh3zFRDSMNxHDq76rAGy1has_mGE3naxwQwBOs3Plk4m00]--></g></svg>