<?xml version="1.0" encoding="us-ascii" standalone="no"?><svg xmlns="http://www.w3.org/2000/svg" xmlns:xlink="http://www.w3.org/1999/xlink" contentStyleType="text/css" height="457px" preserveAspectRatio="none" style="width:1121px;height:457px;background:#FFFFFF;" version="1.1" viewBox="0 0 1121 457" width="1121px" zoomAndPan="magnify"><defs/><g><ellipse cx="561.5" cy="20" fill="#222222" rx="10" ry="10" style="stroke:#222222;stroke-width:1.0;"/><polygon fill="#F1F1F1" points="93.5,50,204.5,50,216.5,62,204.5,74,93.5,74,81.5,62,93.5,50" style="stroke:#181818;stroke-width:0.5;"/><text fill="#000000" font-family="sans-serif" font-size="11" lengthAdjust="spacing" textLength="20" x="153" y="84.2104">null</text><text fill="#000000" font-family="sans-serif" font-size="11" lengthAdjust="spacing" textLength="111" x="93.5" y="65.8081">value_pu8 == NULL</text><rect fill="#F1F1F1" height="33.9688" rx="12.5" ry="12.5" style="stroke:#181818;stroke-width:0.5;" width="276" x="11" y="106.8047"/><text fill="#000000" font-family="sans-serif" font-size="12" lengthAdjust="spacing" textLength="256" x="21" y="127.9434">StatusFlg_u32 |= TOOL_STATUS_ERR_U32</text><rect fill="#F1F1F1" height="33.9688" rx="12.5" ry="12.5" style="stroke:#181818;stroke-width:0.5;" width="71" x="113.5" y="175.7734"/><text fill="#000000" font-family="sans-serif" font-size="12" lengthAdjust="spacing" textLength="51" x="123.5" y="196.9121">return 3</text><polygon fill="#F1F1F1" points="319,50,595,50,607,62,595,74,319,74,307,62,319,50" style="stroke:#181818;stroke-width:0.5;"/><text fill="#000000" font-family="sans-serif" font-size="11" lengthAdjust="spacing" textLength="39" x="461" y="84.2104">not init</text><text fill="#000000" font-family="sans-serif" font-size="11" lengthAdjust="spacing" textLength="276" x="319" y="65.8081">(StatusFlg_u32 &amp; TOOL_STATUS_INIT_U32) == 0</text><rect fill="#F1F1F1" height="33.9688" rx="12.5" ry="12.5" style="stroke:#181818;stroke-width:0.5;" width="276" x="319" y="106.8047"/><text fill="#000000" font-family="sans-serif" font-size="12" lengthAdjust="spacing" textLength="256" x="329" y="127.9434">StatusFlg_u32 |= TOOL_STATUS_ERR_U32</text><rect fill="#F1F1F1" height="33.9688" rx="12.5" ry="12.5" style="stroke:#181818;stroke-width:0.5;" width="121" x="396.5" y="175.7734"/><ellipse cx="412" cy="192.2422" fill="#000000" rx="2.5" ry="2.5" style="stroke:#000000;stroke-width:0.0;"/><text fill="#000000" font-family="sans-serif" font-size="12" lengthAdjust="spacing" textLength="89" x="418.5" y="196.9121">value_pu8 = 0</text><rect fill="#F1F1F1" height="33.9688" rx="12.5" ry="12.5" style="stroke:#181818;stroke-width:0.5;" width="71" x="421.5" y="244.7422"/><text fill="#000000" font-family="sans-serif" font-size="12" lengthAdjust="spacing" textLength="51" x="431.5" y="265.8809">return 2</text><polygon fill="#F1F1F1" points="639,50,732,50,744,62,732,74,639,74,627,62,639,50" style="stroke:#181818;stroke-width:0.5;"/><text fill="#000000" font-family="sans-serif" font-size="11" lengthAdjust="spacing" textLength="35" x="689.5" y="84.2104">empty</text><text fill="#000000" font-family="sans-serif" font-size="11" lengthAdjust="spacing" textLength="93" x="639" y="65.8081">Count_u32 == 0</text><text fill="#000000" font-family="sans-serif" font-size="11" lengthAdjust="spacing" textLength="50" x="744" y="59.4058">has data</text><rect fill="#F1F1F1" height="33.9688" rx="12.5" ry="12.5" style="stroke:#181818;stroke-width:0.5;" width="121" x="625" y="106.8047"/><ellipse cx="640.5" cy="123.2734" fill="#000000" rx="2.5" ry="2.5" style="stroke:#000000;stroke-width:0.0;"/><text fill="#000000" font-family="sans-serif" font-size="12" lengthAdjust="spacing" textLength="89" x="647" y="127.9434">value_pu8 = 0</text><rect fill="#F1F1F1" height="33.9688" rx="12.5" ry="12.5" style="stroke:#181818;stroke-width:0.5;" width="71" x="650" y="175.7734"/><text fill="#000000" font-family="sans-serif" font-size="12" lengthAdjust="spacing" textLength="51" x="660" y="196.9121">return 1</text><rect fill="#F1F1F1" height="33.9688" rx="12.5" ry="12.5" style="stroke:#181818;stroke-width:0.5;" width="233" x="821.5" y="89.2012"/><ellipse cx="837" cy="105.6699" fill="#000000" rx="2.5" ry="2.5" style="stroke:#000000;stroke-width:0.0;"/><text fill="#000000" font-family="sans-serif" font-size="12" lengthAdjust="spacing" textLength="201" x="843.5" y="110.3398">value_pu8 = Buffer_u8[Tail_u32]</text><rect fill="#F1F1F1" height="33.9688" rx="12.5" ry="12.5" style="stroke:#181818;stroke-width:0.5;" width="166" x="855" y="158.1699"/><text fill="#000000" font-family="sans-serif" font-size="12" lengthAdjust="spacing" textLength="146" x="865" y="179.3086">Buffer_u8[Tail_u32] = 0</text><rect fill="#F1F1F1" height="33.9688" rx="12.5" ry="12.5" style="stroke:#181818;stroke-width:0.5;" width="344" x="766" y="227.1387"/><text fill="#000000" font-family="sans-serif" font-size="12" lengthAdjust="spacing" textLength="324" x="776" y="248.2773">Tail_u32 = (Tail_u32 + 1) % TOOL_BUFFER_SIZE_U32</text><rect fill="#F1F1F1" height="33.9688" rx="12.5" ry="12.5" style="stroke:#181818;stroke-width:0.5;" width="95" x="890.5" y="296.1074"/><text fill="#000000" font-family="sans-serif" font-size="12" lengthAdjust="spacing" textLength="75" x="900.5" y="317.2461">Count_u32--</text><rect fill="#F1F1F1" height="33.9688" rx="12.5" ry="12.5" style="stroke:#181818;stroke-width:0.5;" width="71" x="902.5" y="350.0762"/><text fill="#000000" font-family="sans-serif" font-size="12" lengthAdjust="spacing" textLength="51" x="912.5" y="371.2148">return 0</text><ellipse cx="561.5" cy="435.0449" fill="none" rx="11" ry="11" style="stroke:#222222;stroke-width:1.0;"/><ellipse cx="561.5" cy="435.0449" fill="#222222" rx="6" ry="6" style="stroke:#222222;stroke-width:1.0;"/><line style="stroke:#181818;stroke-width:1.0;" x1="149" x2="149" y1="140.7734" y2="175.7734"/><polygon fill="#181818" points="145,165.7734,149,175.7734,153,165.7734,149,169.7734" style="stroke:#181818;stroke-width:1.0;"/><line style="stroke:#181818;stroke-width:1.0;" x1="457" x2="457" y1="140.7734" y2="175.7734"/><polygon fill="#181818" points="453,165.7734,457,175.7734,461,165.7734,457,169.7734" style="stroke:#181818;stroke-width:1.0;"/><line style="stroke:#181818;stroke-width:1.0;" x1="457" x2="457" y1="209.7422" y2="244.7422"/><polygon fill="#181818" points="453,234.7422,457,244.7422,461,234.7422,457,238.7422" style="stroke:#181818;stroke-width:1.0;"/><line style="stroke:#181818;stroke-width:1.0;" x1="685.5" x2="685.5" y1="140.7734" y2="175.7734"/><polygon fill="#181818" points="681.5,165.7734,685.5,175.7734,689.5,165.7734,685.5,169.7734" style="stroke:#181818;stroke-width:1.0;"/><line style="stroke:#181818;stroke-width:1.0;" x1="938" x2="938" y1="123.1699" y2="158.1699"/><polygon fill="#181818" points="934,148.1699,938,158.1699,942,148.1699,938,152.1699" style="stroke:#181818;stroke-width:1.0;"/><line style="stroke:#181818;stroke-width:1.0;" x1="938" x2="938" y1="192.1387" y2="227.1387"/><polygon fill="#181818" points="934,217.1387,938,227.1387,942,217.1387,938,221.1387" style="stroke:#181818;stroke-width:1.0;"/><line style="stroke:#181818;stroke-width:1.0;" x1="938" x2="938" y1="261.1074" y2="296.1074"/><polygon fill="#181818" points="934,286.1074,938,296.1074,942,286.1074,938,290.1074" style="stroke:#181818;stroke-width:1.0;"/><line style="stroke:#181818;stroke-width:1.0;" x1="938" x2="938" y1="330.0762" y2="350.0762"/><polygon fill="#181818" points="934,340.0762,938,350.0762,942,340.0762,938,344.0762" style="stroke:#181818;stroke-width:1.0;"/><line style="stroke:#181818;stroke-width:1.0;" x1="149" x2="149" y1="74" y2="106.8047"/><polygon fill="#181818" points="145,96.8047,149,106.8047,153,96.8047,149,100.8047" style="stroke:#181818;stroke-width:1.0;"/><line style="stroke:#181818;stroke-width:1.0;" x1="149" x2="149" y1="209.7422" y2="404.0449"/><polygon fill="#181818" points="145,394.0449,149,404.0449,153,394.0449,149,398.0449" style="stroke:#181818;stroke-width:1.0;"/><line style="stroke:#181818;stroke-width:1.0;" x1="457" x2="457" y1="74" y2="106.8047"/><polygon fill="#181818" points="453,96.8047,457,106.8047,461,96.8047,457,100.8047" style="stroke:#181818;stroke-width:1.0;"/><line style="stroke:#181818;stroke-width:1.0;" x1="457" x2="457" y1="278.7109" y2="404.0449"/><polygon fill="#181818" points="453,394.0449,457,404.0449,461,394.0449,457,398.0449" style="stroke:#181818;stroke-width:1.0;"/><line style="stroke:#181818;stroke-width:1.0;" x1="685.5" x2="685.5" y1="74" y2="106.8047"/><polygon fill="#181818" points="681.5,96.8047,685.5,106.8047,689.5,96.8047,685.5,100.8047" style="stroke:#181818;stroke-width:1.0;"/><line style="stroke:#181818;stroke-width:1.0;" x1="685.5" x2="685.5" y1="209.7422" y2="404.0449"/><polygon fill="#181818" points="681.5,394.0449,685.5,404.0449,689.5,394.0449,685.5,398.0449" style="stroke:#181818;stroke-width:1.0;"/><line style="stroke:#181818;stroke-width:1.0;" x1="216.5" x2="307" y1="62" y2="62"/><polygon fill="#181818" points="297,58,307,62,297,66,301,62" style="stroke:#181818;stroke-width:1.0;"/><line style="stroke:#181818;stroke-width:1.0;" x1="607" x2="627" y1="62" y2="62"/><polygon fill="#181818" points="617,58,627,62,617,66,621,62" style="stroke:#181818;stroke-width:1.0;"/><line style="stroke:#181818;stroke-width:1.0;" x1="561.5" x2="561.5" y1="30" y2="35"/><line style="stroke:#181818;stroke-width:1.0;" x1="561.5" x2="149" y1="35" y2="35"/><line style="stroke:#181818;stroke-width:1.0;" x1="149" x2="149" y1="35" y2="50"/><polygon fill="#181818" points="145,40,149,50,153,40,149,44" style="stroke:#181818;stroke-width:1.0;"/><line style="stroke:#181818;stroke-width:1.0;" x1="744" x2="938" y1="62" y2="62"/><line style="stroke:#181818;stroke-width:1.0;" x1="938" x2="938" y1="62" y2="89.2012"/><polygon fill="#181818" points="934,79.2012,938,89.2012,942,79.2012,938,83.2012" style="stroke:#181818;stroke-width:1.0;"/><line style="stroke:#181818;stroke-width:1.0;" x1="938" x2="938" y1="384.0449" y2="404.0449"/><polygon fill="#181818" points="934,394.0449,938,404.0449,942,394.0449,938,398.0449" style="stroke:#181818;stroke-width:1.0;"/><line style="stroke:#181818;stroke-width:1.0;" x1="149" x2="938" y1="404.0449" y2="404.0449"/><line style="stroke:#181818;stroke-width:1.0;" x1="561.5" x2="561.5" y1="404.0449" y2="424.0449"/><polygon fill="#181818" points="557.5,414.0449,561.5,424.0449,565.5,414.0449,561.5,418.0449" style="stroke:#181818;stroke-width:1.0;"/><!--SRC=[bOzHQy8m58NV-olkooJP4BHzaKaVfhHGA0fj-h8nGi1q1hAqD3U3mNwyHZ5M78EzNGxtVESSYsB0IBL0leHsalTk0MaAcwOiAU1U6Y36QKqZWESQ1JgRwm_kaXX-Kc3RRSbhziAQccTLnPiaNlh7GQ8R32JBI6ehFPpSUYStrc9JCE-bFdaMOZi4PHJ-B_fnD0DcupRnjSswSmPFf76W_Epnc_uDcPyXGFR2mawWkFzVkRQL0tUBDoQKzYdl9y8lUg1VbAD0mlq4SmeFvwMh9i-pYjV5QnQcXXNJwRZYaIZDJhMHnQu_0000]--></g></svg>