<?xml version="1.0" encoding="us-ascii" standalone="no"?><svg xmlns="http://www.w3.org/2000/svg" xmlns:xlink="http://www.w3.org/1999/xlink" contentStyleType="text/css" height="514px" preserveAspectRatio="none" style="width:296px;height:514px;background:#FFFFFF;" version="1.1" viewBox="0 0 296 514" width="296px" zoomAndPan="magnify"><defs/><g><ellipse cx="148" cy="20" fill="#222222" rx="10" ry="10" style="stroke:#222222;stroke-width:1.0;"/><rect fill="#F1F1F1" height="33.9688" rx="12.5" ry="12.5" style="stroke:#181818;stroke-width:0.5;" width="109" x="93.5" y="50"/><text fill="#000000" font-family="sans-serif" font-size="12" lengthAdjust="spacing" textLength="89" x="103.5" y="71.1387">Head_u32 = 0</text><rect fill="#F1F1F1" height="33.9688" rx="12.5" ry="12.5" style="stroke:#181818;stroke-width:0.5;" width="97" x="99.5" y="103.9688"/><text fill="#000000" font-family="sans-serif" font-size="12" lengthAdjust="spacing" textLength="77" x="109.5" y="125.1074">Tail_u32 = 0</text><rect fill="#F1F1F1" height="33.9688" rx="12.5" ry="12.5" style="stroke:#181818;stroke-width:0.5;" width="113" x="91.5" y="157.9375"/><text fill="#000000" font-family="sans-serif" font-size="12" lengthAdjust="spacing" textLength="93" x="101.5" y="179.0762">Count_u32 = 0</text><rect fill="#F1F1F1" height="33.9688" rx="12.5" ry="12.5" style="stroke:#181818;stroke-width:0.5;" width="250" x="23" y="211.9063"/><text fill="#000000" font-family="sans-serif" font-size="12" lengthAdjust="spacing" textLength="230" x="33" y="233.0449">for i in [0..TOOL_BUFFER_SIZE_U32-1]</text><rect fill="#F1F1F1" height="33.9688" rx="12.5" ry="12.5" style="stroke:#181818;stroke-width:0.5;" width="118" x="89" y="265.875"/><text fill="#000000" font-family="sans-serif" font-size="12" lengthAdjust="spacing" textLength="98" x="99" y="287.0137">Buffer_u8[i] = 0</text><rect fill="#F1F1F1" height="33.9688" rx="12.5" ry="12.5" style="stroke:#181818;stroke-width:0.5;" width="189" x="53.5" y="319.8438"/><text fill="#000000" font-family="sans-serif" font-size="12" lengthAdjust="spacing" textLength="169" x="63.5" y="340.9824">Mode_e = Tool_modeIdle_e</text><rect fill="#F1F1F1" height="33.9688" rx="12.5" ry="12.5" style="stroke:#181818;stroke-width:0.5;" width="135" x="80.5" y="373.8125"/><text fill="#000000" font-family="sans-serif" font-size="12" lengthAdjust="spacing" textLength="115" x="90.5" y="394.9512">StatusFlg_u32 = 0</text><rect fill="#F1F1F1" height="33.9688" rx="12.5" ry="12.5" style="stroke:#181818;stroke-width:0.5;" width="274" x="11" y="427.7813"/><text fill="#000000" font-family="sans-serif" font-size="12" lengthAdjust="spacing" textLength="254" x="21" y="448.9199">StatusFlg_u32 |= TOOL_STATUS_INIT_U32</text><ellipse cx="148" cy="492.75" fill="none" rx="11" ry="11" style="stroke:#222222;stroke-width:1.0;"/><ellipse cx="148" cy="492.75" fill="#222222" rx="6" ry="6" style="stroke:#222222;stroke-width:1.0;"/><line style="stroke:#181818;stroke-width:1.0;" x1="148" x2="148" y1="30" y2="50"/><polygon fill="#181818" points="144,40,148,50,152,40,148,44" style="stroke:#181818;stroke-width:1.0;"/><line style="stroke:#181818;stroke-width:1.0;" x1="148" x2="148" y1="83.9688" y2="103.9688"/><polygon fill="#181818" points="144,93.9688,148,103.9688,152,93.9688,148,97.9688" style="stroke:#181818;stroke-width:1.0;"/><line style="stroke:#181818;stroke-width:1.0;" x1="148" x2="148" y1="137.9375" y2="157.9375"/><polygon fill="#181818" points="144,147.9375,148,157.9375,152,147.9375,148,151.9375" style="stroke:#181818;stroke-width:1.0;"/><line style="stroke:#181818;stroke-width:1.0;" x1="148" x2="148" y1="191.9063" y2="211.9063"/><polygon fill="#181818" points="144,201.9063,148,211.9063,152,201.9063,148,205.9063" style="stroke:#181818;stroke-width:1.0;"/><line style="stroke:#181818;stroke-width:1.0;" x1="148" x2="148" y1="245.875" y2="265.875"/><polygon fill="#181818" points="144,255.875,148,265.875,152,255.875,148,259.875" style="stroke:#181818;stroke-width:1.0;"/><line style="stroke:#181818;stroke-width:1.0;" x1="148" x2="148" y1="299.8438" y2="319.8438"/><polygon fill="#181818" points="144,309.8438,148,319.8438,152,309.8438,148,313.8438" style="stroke:#181818;stroke-width:1.0;"/><line style="stroke:#181818;stroke-width:1.0;" x1="148" x2="148" y1="353.8125" y2="373.8125"/><polygon fill="#181818" points="144,363.8125,148,373.8125,152,363.8125,148,367.8125" style="stroke:#181818;stroke-width:1.0;"/><line style="stroke:#181818;stroke-width:1.0;" x1="148" x2="148" y1="407.7813" y2="427.7813"/><polygon fill="#181818" points="144,417.7813,148,427.7813,152,417.7813,148,421.7813" style="stroke:#181818;stroke-width:1.0;"/><line style="stroke:#181818;stroke-width:1.0;" x1="148" x2="148" y1="461.75" y2="481.75"/><polygon fill="#181818" points="144,471.75,148,481.75,152,471.75,148,475.75" style="stroke:#181818;stroke-width:1.0;"/><!--SRC=[LOrD2y8W78VlVWg_G6DjbzZeq68ZeHgaNXhZZw0RWisOUkl3vw237P_V2u_pOlMekYWX8PG5FkAyHXKJsYHujc7n2KzsnHhh1Gzvbh6-lqB3kwvz02NF5dXPxFPZd3LXcjGAuJ3eyVUyMQb0HM3M6dX58jB495RK2nzSP-P4z9zzucsJKNPYd0Av4xR9QkIyVNy1]--></g></svg>