<?xml version="1.0" encoding="us-ascii" standalone="no"?><svg xmlns="http://www.w3.org/2000/svg" xmlns:xlink="http://www.w3.org/1999/xlink" contentStyleType="text/css" height="480px" preserveAspectRatio="none" style="width:918px;height:480px;background:#FFFFFF;" version="1.1" viewBox="0 0 918 480" width="918px" zoomAndPan="magnify"><defs/><g><ellipse cx="378.5" cy="20" fill="#222222" rx="10" ry="10" style="stroke:#222222;stroke-width:1.0;"/><polygon fill="#F1F1F1" points="270,50,487,50,499,62,487,74,270,74,258,62,270,50" style="stroke:#181818;stroke-width:0.5;"/><text fill="#000000" font-family="sans-serif" font-size="11" lengthAdjust="spacing" textLength="217" x="270" y="65.8081">Count_u32 &gt; TOOL_BUFFER_SIZE_U32</text><text fill="#000000" font-family="sans-serif" font-size="11" lengthAdjust="spacing" textLength="21" x="237" y="59.4058">bad</text><text fill="#000000" font-family="sans-serif" font-size="11" lengthAdjust="spacing" textLength="13" x="499" y="59.4058">ok</text><rect fill="#F1F1F1" height="33.9688" rx="12.5" ry="12.5" style="stroke:#181818;stroke-width:0.5;" width="276" x="11" y="84"/><text fill="#000000" font-family="sans-serif" font-size="12" lengthAdjust="spacing" textLength="256" x="21" y="105.1387">StatusFlg_u32 |= TOOL_STATUS_ERR_U32</text><rect fill="#F1F1F1" height="33.9688" rx="12.5" ry="12.5" style="stroke:#181818;stroke-width:0.5;" width="71" x="113.5" y="137.9688"/><text fill="#000000" font-family="sans-serif" font-size="12" lengthAdjust="spacing" textLength="51" x="123.5" y="159.1074">return 1</text><rect fill="#F1F1F1" height="33.9688" rx="12.5" ry="12.5" style="stroke:#181818;stroke-width:0.5;" width="72" x="572" y="84"/><text fill="#000000" font-family="sans-serif" font-size="12" lengthAdjust="spacing" textLength="52" x="582" y="105.1387">sum = 0</text><rect fill="#F1F1F1" height="33.9688" rx="12.5" ry="12.5" style="stroke:#181818;stroke-width:0.5;" width="250" x="483" y="137.9688"/><text fill="#000000" font-family="sans-serif" font-size="12" lengthAdjust="spacing" textLength="230" x="493" y="159.1074">for i in [0..TOOL_BUFFER_SIZE_U32-1]</text><rect fill="#F1F1F1" height="33.9688" rx="12.5" ry="12.5" style="stroke:#181818;stroke-width:0.5;" width="146" x="535" y="191.9375"/><text fill="#000000" font-family="sans-serif" font-size="12" lengthAdjust="spacing" textLength="126" x="545" y="213.0762">sum += Buffer_u8[i]</text><polygon fill="#F1F1F1" points="503.5,245.9063,712.5,245.9063,724.5,257.9063,712.5,269.9063,503.5,269.9063,491.5,257.9063,503.5,245.9063" style="stroke:#181818;stroke-width:0.5;"/><text fill="#000000" font-family="sans-serif" font-size="11" lengthAdjust="spacing" textLength="209" x="503.5" y="261.7144">sum &gt; 255*TOOL_BUFFER_SIZE_U32</text><text fill="#000000" font-family="sans-serif" font-size="11" lengthAdjust="spacing" textLength="65" x="426.5" y="255.312">unexpected</text><text fill="#000000" font-family="sans-serif" font-size="11" lengthAdjust="spacing" textLength="40" x="724.5" y="255.312">normal</text><rect fill="#F1F1F1" height="33.9688" rx="12.5" ry="12.5" style="stroke:#181818;stroke-width:0.5;" width="277" x="317" y="279.9063"/><text fill="#000000" font-family="sans-serif" font-size="12" lengthAdjust="spacing" textLength="257" x="327" y="301.0449">StatusFlg_u32 |= TOOL_STATUS_UDF_U32</text><rect fill="#F1F1F1" height="33.9688" rx="12.5" ry="12.5" style="stroke:#181818;stroke-width:0.5;" width="71" x="420" y="333.875"/><text fill="#000000" font-family="sans-serif" font-size="12" lengthAdjust="spacing" textLength="51" x="430" y="355.0137">return 2</text><rect fill="#F1F1F1" height="33.9688" rx="12.5" ry="12.5" style="stroke:#181818;stroke-width:0.5;" width="293" x="614" y="279.9063"/><text fill="#000000" font-family="sans-serif" font-size="12" lengthAdjust="spacing" textLength="273" x="624" y="301.0449">StatusFlg_u32 &amp;= ~TOOL_STATUS_UDF_U32</text><rect fill="#F1F1F1" height="33.9688" rx="12.5" ry="12.5" style="stroke:#181818;stroke-width:0.5;" width="71" x="725" y="333.875"/><text fill="#000000" font-family="sans-serif" font-size="12" lengthAdjust="spacing" textLength="51" x="735" y="355.0137">return 0</text><polygon fill="#F1F1F1" points="608,373.8438,620,385.8438,608,397.8438,596,385.8438,608,373.8438" style="stroke:#181818;stroke-width:0.5;"/><polygon fill="#F1F1F1" points="378.5,403.8438,390.5,415.8438,378.5,427.8438,366.5,415.8438,378.5,403.8438" style="stroke:#181818;stroke-width:0.5;"/><ellipse cx="378.5" cy="458.8438" fill="none" rx="11" ry="11" style="stroke:#222222;stroke-width:1.0;"/><ellipse cx="378.5" cy="458.8438" fill="#222222" rx="6" ry="6" style="stroke:#222222;stroke-width:1.0;"/><line style="stroke:#181818;stroke-width:1.0;" x1="149" x2="149" y1="117.9688" y2="137.9688"/><polygon fill="#181818" points="145,127.9688,149,137.9688,153,127.9688,149,131.9688" style="stroke:#181818;stroke-width:1.0;"/><line style="stroke:#181818;stroke-width:1.0;" x1="608" x2="608" y1="117.9688" y2="137.9688"/><polygon fill="#181818" points="604,127.9688,608,137.9688,612,127.9688,608,131.9688" style="stroke:#181818;stroke-width:1.0;"/><line style="stroke:#181818;stroke-width:1.0;" x1="608" x2="608" y1="171.9375" y2="191.9375"/><polygon fill="#181818" points="604,181.9375,608,191.9375,612,181.9375,608,185.9375" style="stroke:#181818;stroke-width:1.0;"/><line style="stroke:#181818;stroke-width:1.0;" x1="455.5" x2="455.5" y1="313.875" y2="333.875"/><polygon fill="#181818" points="451.5,323.875,455.5,333.875,459.5,323.875,455.5,327.875" style="stroke:#181818;stroke-width:1.0;"/><line style="stroke:#181818;stroke-width:1.0;" x1="760.5" x2="760.5" y1="313.875" y2="333.875"/><polygon fill="#181818" points="756.5,323.875,760.5,333.875,764.5,323.875,760.5,327.875" style="stroke:#181818;stroke-width:1.0;"/><line style="stroke:#181818;stroke-width:1.0;" x1="491.5" x2="455.5" y1="257.9063" y2="257.9063"/><line style="stroke:#181818;stroke-width:1.0;" x1="455.5" x2="455.5" y1="257.9063" y2="279.9063"/><polygon fill="#181818" points="451.5,269.9063,455.5,279.9063,459.5,269.9063,455.5,273.9063" style="stroke:#181818;stroke-width:1.0;"/><line style="stroke:#181818;stroke-width:1.0;" x1="724.5" x2="760.5" y1="257.9063" y2="257.9063"/><line style="stroke:#181818;stroke-width:1.0;" x1="760.5" x2="760.5" y1="257.9063" y2="279.9063"/><polygon fill="#181818" points="756.5,269.9063,760.5,279.9063,764.5,269.9063,760.5,273.9063" style="stroke:#181818;stroke-width:1.0;"/><line style="stroke:#181818;stroke-width:1.0;" x1="455.5" x2="455.5" y1="367.8438" y2="385.8438"/><line style="stroke:#181818;stroke-width:1.0;" x1="455.5" x2="596" y1="385.8438" y2="385.8438"/><polygon fill="#181818" points="586,381.8438,596,385.8438,586,389.8438,590,385.8438" style="stroke:#181818;stroke-width:1.0;"/><line style="stroke:#181818;stroke-width:1.0;" x1="760.5" x2="760.5" y1="367.8438" y2="385.8438"/><line style="stroke:#181818;stroke-width:1.0;" x1="760.5" x2="620" y1="385.8438" y2="385.8438"/><polygon fill="#181818" points="630,381.8438,620,385.8438,630,389.8438,626,385.8438" style="stroke:#181818;stroke-width:1.0;"/><line style="stroke:#181818;stroke-width:1.0;" x1="608" x2="608" y1="225.9063" y2="245.9063"/><polygon fill="#181818" points="604,235.9063,608,245.9063,612,235.9063,608,239.9063" style="stroke:#181818;stroke-width:1.0;"/><line style="stroke:#181818;stroke-width:1.0;" x1="258" x2="149" y1="62" y2="62"/><line style="stroke:#181818;stroke-width:1.0;" x1="149" x2="149" y1="62" y2="84"/><polygon fill="#181818" points="145,74,149,84,153,74,149,78" style="stroke:#181818;stroke-width:1.0;"/><line style="stroke:#181818;stroke-width:1.0;" x1="499" x2="608" y1="62" y2="62"/><line style="stroke:#181818;stroke-width:1.0;" x1="608" x2="608" y1="62" y2="84"/><polygon fill="#181818" points="604,74,608,84,612,74,608,78" style="stroke:#181818;stroke-width:1.0;"/><line style="stroke:#181818;stroke-width:1.0;" x1="149" x2="149" y1="171.9375" y2="415.8438"/><line style="stroke:#181818;stroke-width:1.0;" x1="149" x2="366.5" y1="415.8438" y2="415.8438"/><polygon fill="#181818" points="356.5,411.8438,366.5,415.8438,356.5,419.8438,360.5,415.8438" style="stroke:#181818;stroke-width:1.0;"/><line style="stroke:#181818;stroke-width:1.0;" x1="608" x2="608" y1="397.8438" y2="415.8438"/><line style="stroke:#181818;stroke-width:1.0;" x1="608" x2="390.5" y1="415.8438" y2="415.8438"/><polygon fill="#181818" points="400.5,411.8438,390.5,415.8438,400.5,419.8438,396.5,415.8438" style="stroke:#181818;stroke-width:1.0;"/><line style="stroke:#181818;stroke-width:1.0;" x1="378.5" x2="378.5" y1="30" y2="50"/><polygon fill="#181818" points="374.5,40,378.5,50,382.5,40,378.5,44" style="stroke:#181818;stroke-width:1.0;"/><line style="stroke:#181818;stroke-width:1.0;" x1="378.5" x2="378.5" y1="427.8438" y2="447.8438"/><polygon fill="#181818" points="374.5,437.8438,378.5,447.8438,382.5,437.8438,378.5,441.8438" style="stroke:#181818;stroke-width:1.0;"/><!--SRC=[XOzDIyD048Rl-HNlILB5qgOKf245gma8GY4V5qjPefrj5zFTiZiB7iJVBjbGl1Hx6PYFPsOUnwtbI4d4JyPh5dwMO8bwlNuLgwOeyb9KBs-vQ6R927mWZVYztOqYO55nozuLtJumtza0LVLZtLGYBykUIVj1I-ojnZIDg7E4s7m6tlaZCap2Y3GM2afZCncFBns_dsxJCtINOUMb92lymqQ5Ulz_treYcSzl__lUQ_ewqGTJaBYcqJmNPuq_aP0EAjhOOzjTt7IJuUVggc1FUgTaD4J7vlGB]--></g></svg>