<?xml version="1.0" encoding="us-ascii" standalone="no"?><svg xmlns="http://www.w3.org/2000/svg" xmlns:xlink="http://www.w3.org/1999/xlink" contentStyleType="text/css" height="696px" preserveAspectRatio="none" style="width:523px;height:696px;background:#FFFFFF;" version="1.1" viewBox="0 0 523 696" width="523px" zoomAndPan="magnify"><defs/><g><ellipse cx="213" cy="20" fill="#222222" rx="10" ry="10" style="stroke:#222222;stroke-width:1.0;"/><polygon fill="#F1F1F1" points="99.5,50,326.5,50,338.5,62,326.5,74,99.5,74,87.5,62,99.5,50" style="stroke:#181818;stroke-width:0.5;"/><text fill="#000000" font-family="sans-serif" font-size="11" lengthAdjust="spacing" textLength="227" x="99.5" y="65.8081">data_pcu8 == NULL or length_u32 == 0</text><text fill="#000000" font-family="sans-serif" font-size="11" lengthAdjust="spacing" textLength="20" x="67.5" y="59.4058">yes</text><text fill="#000000" font-family="sans-serif" font-size="11" lengthAdjust="spacing" textLength="14" x="338.5" y="59.4058">no</text><rect fill="#F1F1F1" height="33.9688" rx="12.5" ry="12.5" style="stroke:#181818;stroke-width:0.5;" width="133" x="11" y="84"/><text fill="#000000" font-family="sans-serif" font-size="12" lengthAdjust="spacing" textLength="113" x="21" y="105.1387">return 0xFFFFFFFF</text><rect fill="#F1F1F1" height="33.9688" rx="12.5" ry="12.5" style="stroke:#181818;stroke-width:0.5;" width="328" x="184.5" y="84"/><text fill="#000000" font-family="sans-serif" font-size="12" lengthAdjust="spacing" textLength="308" x="194.5" y="105.1387">l_len = min(length_u32, TOOL_MAX_CRC_LEN_U32)</text><rect fill="#F1F1F1" height="33.9688" rx="12.5" ry="12.5" style="stroke:#181818;stroke-width:0.5;" width="127" x="285" y="137.9688"/><text fill="#000000" font-family="sans-serif" font-size="12" lengthAdjust="spacing" textLength="107" x="295" y="159.1074">crc = 0xFFFFFFFF</text><rect fill="#F1F1F1" height="33.9688" rx="12.5" ry="12.5" style="stroke:#181818;stroke-width:0.5;" width="103" x="297" y="191.9375"/><text fill="#000000" font-family="sans-serif" font-size="12" lengthAdjust="spacing" textLength="83" x="307" y="213.0762">for each byte</text><rect fill="#F1F1F1" height="33.9688" rx="12.5" ry="12.5" style="stroke:#181818;stroke-width:0.5;" width="94" x="301.5" y="245.9063"/><text fill="#000000" font-family="sans-serif" font-size="12" lengthAdjust="spacing" textLength="74" x="311.5" y="267.0449">crc ^= byte</text><rect fill="#F1F1F1" height="33.9688" rx="12.5" ry="12.5" style="stroke:#181818;stroke-width:0.5;" width="112" x="292.5" y="299.875"/><text fill="#000000" font-family="sans-serif" font-size="12" lengthAdjust="spacing" textLength="92" x="302.5" y="321.0137">repeat 8 times</text><polygon fill="#F1F1F1" points="327.5,353.8438,369.5,353.8438,381.5,365.8438,369.5,377.8438,327.5,377.8438,315.5,365.8438,327.5,353.8438" style="stroke:#181818;stroke-width:0.5;"/><text fill="#000000" font-family="sans-serif" font-size="11" lengthAdjust="spacing" textLength="42" x="327.5" y="369.6519">crc &amp; 1</text><text fill="#000000" font-family="sans-serif" font-size="11" lengthAdjust="spacing" textLength="20" x="295.5" y="363.2495">yes</text><text fill="#000000" font-family="sans-serif" font-size="11" lengthAdjust="spacing" textLength="14" x="381.5" y="363.2495">no</text><rect fill="#F1F1F1" height="33.9688" rx="12.5" ry="12.5" style="stroke:#181818;stroke-width:0.5;" width="170" x="180.5" y="387.8438"/><text fill="#000000" font-family="sans-serif" font-size="12" lengthAdjust="spacing" textLength="150" x="190.5" y="408.9824">crc = (crc &gt;&gt; 1) ^ POLY</text><rect fill="#F1F1F1" height="33.9688" rx="12.5" ry="12.5" style="stroke:#181818;stroke-width:0.5;" width="122" x="370.5" y="387.8438"/><text fill="#000000" font-family="sans-serif" font-size="12" lengthAdjust="spacing" textLength="102" x="380.5" y="408.9824">crc = (crc &gt;&gt; 1)</text><polygon fill="#F1F1F1" points="348.5,427.8125,360.5,439.8125,348.5,451.8125,336.5,439.8125,348.5,427.8125" style="stroke:#181818;stroke-width:0.5;"/><rect fill="#F1F1F1" height="33.9688" rx="12.5" ry="12.5" style="stroke:#181818;stroke-width:0.5;" width="44" x="326.5" y="471.8125"/><text fill="#000000" font-family="sans-serif" font-size="12" lengthAdjust="spacing" textLength="24" x="336.5" y="492.9512">end</text><rect fill="#F1F1F1" height="33.9688" rx="12.5" ry="12.5" style="stroke:#181818;stroke-width:0.5;" width="137" x="280" y="525.7813"/><text fill="#000000" font-family="sans-serif" font-size="12" lengthAdjust="spacing" textLength="117" x="290" y="546.9199">crc ^= 0xFFFFFFFF</text><rect fill="#F1F1F1" height="33.9688" rx="12.5" ry="12.5" style="stroke:#181818;stroke-width:0.5;" width="82" x="307.5" y="579.75"/><text fill="#000000" font-family="sans-serif" font-size="12" lengthAdjust="spacing" textLength="62" x="317.5" y="600.8887">return crc</text><polygon fill="#F1F1F1" points="213,619.7188,225,631.7188,213,643.7188,201,631.7188,213,619.7188" style="stroke:#181818;stroke-width:0.5;"/><ellipse cx="213" cy="674.7188" fill="none" rx="11" ry="11" style="stroke:#222222;stroke-width:1.0;"/><ellipse cx="213" cy="674.7188" fill="#222222" rx="6" ry="6" style="stroke:#222222;stroke-width:1.0;"/><line style="stroke:#181818;stroke-width:1.0;" x1="348.5" x2="348.5" y1="117.9688" y2="137.9688"/><polygon fill="#181818" points="344.5,127.9688,348.5,137.9688,352.5,127.9688,348.5,131.9688" style="stroke:#181818;stroke-width:1.0;"/><line style="stroke:#181818;stroke-width:1.0;" x1="348.5" x2="348.5" y1="171.9375" y2="191.9375"/><polygon fill="#181818" points="344.5,181.9375,348.5,191.9375,352.5,181.9375,348.5,185.9375" style="stroke:#181818;stroke-width:1.0;"/><line style="stroke:#181818;stroke-width:1.0;" x1="348.5" x2="348.5" y1="225.9063" y2="245.9063"/><polygon fill="#181818" points="344.5,235.9063,348.5,245.9063,352.5,235.9063,348.5,239.9063" style="stroke:#181818;stroke-width:1.0;"/><line style="stroke:#181818;stroke-width:1.0;" x1="348.5" x2="348.5" y1="279.875" y2="299.875"/><polygon fill="#181818" points="344.5,289.875,348.5,299.875,352.5,289.875,348.5,293.875" style="stroke:#181818;stroke-width:1.0;"/><line style="stroke:#181818;stroke-width:1.0;" x1="315.5" x2="265.5" y1="365.8438" y2="365.8438"/><line style="stroke:#181818;stroke-width:1.0;" x1="265.5" x2="265.5" y1="365.8438" y2="387.8438"/><polygon fill="#181818" points="261.5,377.8438,265.5,387.8438,269.5,377.8438,265.5,381.8438" style="stroke:#181818;stroke-width:1.0;"/><line style="stroke:#181818;stroke-width:1.0;" x1="381.5" x2="431.5" y1="365.8438" y2="365.8438"/><line style="stroke:#181818;stroke-width:1.0;" x1="431.5" x2="431.5" y1="365.8438" y2="387.8438"/><polygon fill="#181818" points="427.5,377.8438,431.5,387.8438,435.5,377.8438,431.5,381.8438" style="stroke:#181818;stroke-width:1.0;"/><line style="stroke:#181818;stroke-width:1.0;" x1="265.5" x2="265.5" y1="421.8125" y2="439.8125"/><line style="stroke:#181818;stroke-width:1.0;" x1="265.5" x2="336.5" y1="439.8125" y2="439.8125"/><polygon fill="#181818" points="326.5,435.8125,336.5,439.8125,326.5,443.8125,330.5,439.8125" style="stroke:#181818;stroke-width:1.0;"/><line style="stroke:#181818;stroke-width:1.0;" x1="431.5" x2="431.5" y1="421.8125" y2="439.8125"/><line style="stroke:#181818;stroke-width:1.0;" x1="431.5" x2="360.5" y1="439.8125" y2="439.8125"/><polygon fill="#181818" points="370.5,435.8125,360.5,439.8125,370.5,443.8125,366.5,439.8125" style="stroke:#181818;stroke-width:1.0;"/><line style="stroke:#181818;stroke-width:1.0;" x1="348.5" x2="348.5" y1="333.8438" y2="353.8438"/><polygon fill="#181818" points="344.5,343.8438,348.5,353.8438,352.5,343.8438,348.5,347.8438" style="stroke:#181818;stroke-width:1.0;"/><line style="stroke:#181818;stroke-width:1.0;" x1="348.5" x2="348.5" y1="451.8125" y2="471.8125"/><polygon fill="#181818" points="344.5,461.8125,348.5,471.8125,352.5,461.8125,348.5,465.8125" style="stroke:#181818;stroke-width:1.0;"/><line style="stroke:#181818;stroke-width:1.0;" x1="348.5" x2="348.5" y1="505.7813" y2="525.7813"/><polygon fill="#181818" points="344.5,515.7813,348.5,525.7813,352.5,515.7813,348.5,519.7813" style="stroke:#181818;stroke-width:1.0;"/><line style="stroke:#181818;stroke-width:1.0;" x1="348.5" x2="348.5" y1="559.75" y2="579.75"/><polygon fill="#181818" points="344.5,569.75,348.5,579.75,352.5,569.75,348.5,573.75" style="stroke:#181818;stroke-width:1.0;"/><line style="stroke:#181818;stroke-width:1.0;" x1="87.5" x2="77.5" y1="62" y2="62"/><line style="stroke:#181818;stroke-width:1.0;" x1="77.5" x2="77.5" y1="62" y2="84"/><polygon fill="#181818" points="73.5,74,77.5,84,81.5,74,77.5,78" style="stroke:#181818;stroke-width:1.0;"/><line style="stroke:#181818;stroke-width:1.0;" x1="338.5" x2="348.5" y1="62" y2="62"/><line style="stroke:#181818;stroke-width:1.0;" x1="348.5" x2="348.5" y1="62" y2="84"/><polygon fill="#181818" points="344.5,74,348.5,84,352.5,74,348.5,78" style="stroke:#181818;stroke-width:1.0;"/><line style="stroke:#181818;stroke-width:1.0;" x1="77.5" x2="77.5" y1="117.9688" y2="631.7188"/><line style="stroke:#181818;stroke-width:1.0;" x1="77.5" x2="201" y1="631.7188" y2="631.7188"/><polygon fill="#181818" points="191,627.7188,201,631.7188,191,635.7188,195,631.7188" style="stroke:#181818;stroke-width:1.0;"/><line style="stroke:#181818;stroke-width:1.0;" x1="348.5" x2="348.5" y1="613.7188" y2="631.7188"/><line style="stroke:#181818;stroke-width:1.0;" x1="348.5" x2="225" y1="631.7188" y2="631.7188"/><polygon fill="#181818" points="235,627.7188,225,631.7188,235,635.7188,231,631.7188" style="stroke:#181818;stroke-width:1.0;"/><line style="stroke:#181818;stroke-width:1.0;" x1="213" x2="213" y1="30" y2="50"/><polygon fill="#181818" points="209,40,213,50,217,40,213,44" style="stroke:#181818;stroke-width:1.0;"/><line style="stroke:#181818;stroke-width:1.0;" x1="213" x2="213" y1="643.7188" y2="663.7188"/><polygon fill="#181818" points="209,653.7188,213,663.7188,217,653.7188,213,657.7188" style="stroke:#181818;stroke-width:1.0;"/><!--SRC=[RP1FYy8m4CNl_HJl92timJyNKIeiegTeHLPmBuPidTf2JKio1Vts9hMiHPnJClERDs_6iZ8S51d2is8bwxIP8ewnFGY1og0aVU5SDfEnpmuZS4uQuPri500pGzmOZU5jtSKyeD8IGbsrzL8w0SIu5ZfyINtX9qc4t7mVvNA_b6ArbOV9E9hxZjIaZkyBkcJcd91AS_pTcVwnK_pw6wf9CQRWuahMfm2_bES66Btvzj5DQed5mYCdx1Bn- -pjR_6HxZ1zBZ8_tptwljxyTsToHNUVjiLoLJy0]--></g></svg>