<?xml version="1.0" encoding="us-ascii" standalone="no"?><svg xmlns="http://www.w3.org/2000/svg" xmlns:xlink="http://www.w3.org/1999/xlink" contentStyleType="text/css" height="298px" preserveAspectRatio="none" style="width:349px;height:298px;background:#FFFFFF;" version="1.1" viewBox="0 0 349 298" width="349px" zoomAndPan="magnify"><defs/><g><ellipse cx="174.5" cy="20" fill="#222222" rx="10" ry="10" style="stroke:#222222;stroke-width:1.0;"/><rect fill="#F1F1F1" height="33.9688" rx="12.5" ry="12.5" style="stroke:#181818;stroke-width:0.5;" width="206" x="71.5" y="50"/><text fill="#000000" font-family="sans-serif" font-size="12" lengthAdjust="spacing" textLength="186" x="81.5" y="71.1387">l_status_u32 = StatusFlg_u32</text><rect fill="#F1F1F1" height="33.9688" rx="12.5" ry="12.5" style="stroke:#181818;stroke-width:0.5;" width="323" x="13" y="103.9688"/><text fill="#000000" font-family="sans-serif" font-size="12" lengthAdjust="spacing" textLength="303" x="23" y="125.1074">l_status_u32 bits[1:0] = (uint32_t)Mode_e &amp; 0x3</text><rect fill="#F1F1F1" height="33.9688" rx="12.5" ry="12.5" style="stroke:#181818;stroke-width:0.5;" width="327" x="11" y="157.9375"/><text fill="#000000" font-family="sans-serif" font-size="12" lengthAdjust="spacing" textLength="307" x="21" y="179.0762">l_status_u32 bits[31:16] = (Count_u32 &amp; 0xFFFF)</text><rect fill="#F1F1F1" height="33.9688" rx="12.5" ry="12.5" style="stroke:#181818;stroke-width:0.5;" width="142" x="103.5" y="211.9063"/><text fill="#000000" font-family="sans-serif" font-size="12" lengthAdjust="spacing" textLength="122" x="113.5" y="233.0449">return l_status_u32</text><ellipse cx="174.5" cy="276.875" fill="none" rx="11" ry="11" style="stroke:#222222;stroke-width:1.0;"/><ellipse cx="174.5" cy="276.875" fill="#222222" rx="6" ry="6" style="stroke:#222222;stroke-width:1.0;"/><line style="stroke:#181818;stroke-width:1.0;" x1="174.5" x2="174.5" y1="30" y2="50"/><polygon fill="#181818" points="170.5,40,174.5,50,178.5,40,174.5,44" style="stroke:#181818;stroke-width:1.0;"/><line style="stroke:#181818;stroke-width:1.0;" x1="174.5" x2="174.5" y1="83.9688" y2="103.9688"/><polygon fill="#181818" points="170.5,93.9688,174.5,103.9688,178.5,93.9688,174.5,97.9688" style="stroke:#181818;stroke-width:1.0;"/><line style="stroke:#181818;stroke-width:1.0;" x1="174.5" x2="174.5" y1="137.9375" y2="157.9375"/><polygon fill="#181818" points="170.5,147.9375,174.5,157.9375,178.5,147.9375,174.5,151.9375" style="stroke:#181818;stroke-width:1.0;"/><line style="stroke:#181818;stroke-width:1.0;" x1="174.5" x2="174.5" y1="191.9063" y2="211.9063"/><polygon fill="#181818" points="170.5,201.9063,174.5,211.9063,178.5,201.9063,174.5,205.9063" style="stroke:#181818;stroke-width:1.0;"/><line style="stroke:#181818;stroke-width:1.0;" x1="174.5" x2="174.5" y1="245.875" y2="265.875"/><polygon fill="#181818" points="170.5,255.875,174.5,265.875,178.5,255.875,174.5,259.875" style="stroke:#181818;stroke-width:1.0;"/><!--SRC=[Aov9B2hXiig9Bov9B2ajZYyrDbAmLGW6Sznoqa5yQpJffCoIucX3AuDOe4ADqioy4cEZ-19Dt_oKrFXK1JK5WmfZh3gC3QqCpS1wdFDByqh04Y3LRa2W2THHb5fIMfIdWApHcgku9By00000]--></g></svg>