<?xml version="1.0" encoding="us-ascii" standalone="no"?><svg xmlns="http://www.w3.org/2000/svg" xmlns:xlink="http://www.w3.org/1999/xlink" contentStyleType="text/css" height="442px" preserveAspectRatio="none" style="width:1005px;height:442px;background:#FFFFFF;" version="1.1" viewBox="0 0 1005 442" width="1005px" zoomAndPan="magnify"><defs/><g><ellipse cx="502" cy="20" fill="#222222" rx="10" ry="10" style="stroke:#222222;stroke-width:1.0;"/><polygon fill="#F1F1F1" points="32,50,308,50,320,62,308,74,32,74,20,62,32,50" style="stroke:#181818;stroke-width:0.5;"/><text fill="#000000" font-family="sans-serif" font-size="11" lengthAdjust="spacing" textLength="39" x="174" y="84.2104">not init</text><text fill="#000000" font-family="sans-serif" font-size="11" lengthAdjust="spacing" textLength="276" x="32" y="65.8081">(StatusFlg_u32 &amp; TOOL_STATUS_INIT_U32) == 0</text><rect fill="#F1F1F1" height="33.9688" rx="12.5" ry="12.5" style="stroke:#181818;stroke-width:0.5;" width="276" x="32" y="106.8047"/><text fill="#000000" font-family="sans-serif" font-size="12" lengthAdjust="spacing" textLength="256" x="42" y="127.9434">StatusFlg_u32 |= TOOL_STATUS_ERR_U32</text><rect fill="#F1F1F1" height="33.9688" rx="12.5" ry="12.5" style="stroke:#181818;stroke-width:0.5;" width="71" x="134.5" y="175.7734"/><text fill="#000000" font-family="sans-serif" font-size="12" lengthAdjust="spacing" textLength="51" x="144.5" y="196.9121">return 2</text><polygon fill="#F1F1F1" points="355,50,581,50,593,62,581,74,355,74,343,62,355,50" style="stroke:#181818;stroke-width:0.5;"/><text fill="#000000" font-family="sans-serif" font-size="11" lengthAdjust="spacing" textLength="17" x="472" y="84.2104">full</text><text fill="#000000" font-family="sans-serif" font-size="11" lengthAdjust="spacing" textLength="226" x="355" y="65.8081">Count_u32 &gt;= TOOL_BUFFER_SIZE_U32</text><text fill="#000000" font-family="sans-serif" font-size="11" lengthAdjust="spacing" textLength="34" x="593" y="59.4058">space</text><rect fill="#F1F1F1" height="33.9688" rx="12.5" ry="12.5" style="stroke:#181818;stroke-width:0.5;" width="276" x="330" y="106.8047"/><text fill="#000000" font-family="sans-serif" font-size="12" lengthAdjust="spacing" textLength="256" x="340" y="127.9434">StatusFlg_u32 |= TOOL_STATUS_OVF_U32</text><rect fill="#F1F1F1" height="33.9688" rx="12.5" ry="12.5" style="stroke:#181818;stroke-width:0.5;" width="71" x="432.5" y="175.7734"/><text fill="#000000" font-family="sans-serif" font-size="12" lengthAdjust="spacing" textLength="51" x="442.5" y="196.9121">return 1</text><rect fill="#F1F1F1" height="33.9688" rx="12.5" ry="12.5" style="stroke:#181818;stroke-width:0.5;" width="225" x="697.5" y="89.2012"/><text fill="#000000" font-family="sans-serif" font-size="12" lengthAdjust="spacing" textLength="205" x="707.5" y="110.3398">Buffer_u8[Head_u32] = value_u8</text><rect fill="#F1F1F1" height="33.9688" rx="12.5" ry="12.5" style="stroke:#181818;stroke-width:0.5;" width="368" x="626" y="158.1699"/><text fill="#000000" font-family="sans-serif" font-size="12" lengthAdjust="spacing" textLength="348" x="636" y="179.3086">Head_u32 = (Head_u32 + 1) % TOOL_BUFFER_SIZE_U32</text><rect fill="#F1F1F1" height="33.9688" rx="12.5" ry="12.5" style="stroke:#181818;stroke-width:0.5;" width="107" x="756.5" y="227.1387"/><text fill="#000000" font-family="sans-serif" font-size="12" lengthAdjust="spacing" textLength="87" x="766.5" y="248.2773">Count_u32++</text><rect fill="#F1F1F1" height="33.9688" rx="12.5" ry="12.5" style="stroke:#181818;stroke-width:0.5;" width="292" x="664" y="281.1074"/><text fill="#000000" font-family="sans-serif" font-size="12" lengthAdjust="spacing" textLength="272" x="674" y="302.2461">StatusFlg_u32 &amp;= ~TOOL_STATUS_OVF_U32</text><rect fill="#F1F1F1" height="33.9688" rx="12.5" ry="12.5" style="stroke:#181818;stroke-width:0.5;" width="71" x="774.5" y="335.0762"/><text fill="#000000" font-family="sans-serif" font-size="12" lengthAdjust="spacing" textLength="51" x="784.5" y="356.2148">return 0</text><ellipse cx="502" cy="420.0449" fill="none" rx="11" ry="11" style="stroke:#222222;stroke-width:1.0;"/><ellipse cx="502" cy="420.0449" fill="#222222" rx="6" ry="6" style="stroke:#222222;stroke-width:1.0;"/><line style="stroke:#181818;stroke-width:1.0;" x1="170" x2="170" y1="140.7734" y2="175.7734"/><polygon fill="#181818" points="166,165.7734,170,175.7734,174,165.7734,170,169.7734" style="stroke:#181818;stroke-width:1.0;"/><line style="stroke:#181818;stroke-width:1.0;" x1="468" x2="468" y1="140.7734" y2="175.7734"/><polygon fill="#181818" points="464,165.7734,468,175.7734,472,165.7734,468,169.7734" style="stroke:#181818;stroke-width:1.0;"/><line style="stroke:#181818;stroke-width:1.0;" x1="810" x2="810" y1="123.1699" y2="158.1699"/><polygon fill="#181818" points="806,148.1699,810,158.1699,814,148.1699,810,152.1699" style="stroke:#181818;stroke-width:1.0;"/><line style="stroke:#181818;stroke-width:1.0;" x1="810" x2="810" y1="192.1387" y2="227.1387"/><polygon fill="#181818" points="806,217.1387,810,227.1387,814,217.1387,810,221.1387" style="stroke:#181818;stroke-width:1.0;"/><line style="stroke:#181818;stroke-width:1.0;" x1="810" x2="810" y1="261.1074" y2="281.1074"/><polygon fill="#181818" points="806,271.1074,810,281.1074,814,271.1074,810,275.1074" style="stroke:#181818;stroke-width:1.0;"/><line style="stroke:#181818;stroke-width:1.0;" x1="810" x2="810" y1="315.0762" y2="335.0762"/><polygon fill="#181818" points="806,325.0762,810,335.0762,814,325.0762,810,329.0762" style="stroke:#181818;stroke-width:1.0;"/><line style="stroke:#181818;stroke-width:1.0;" x1="170" x2="170" y1="74" y2="106.8047"/><polygon fill="#181818" points="166,96.8047,170,106.8047,174,96.8047,170,100.8047" style="stroke:#181818;stroke-width:1.0;"/><line style="stroke:#181818;stroke-width:1.0;" x1="170" x2="170" y1="209.7422" y2="389.0449"/><polygon fill="#181818" points="166,379.0449,170,389.0449,174,379.0449,170,383.0449" style="stroke:#181818;stroke-width:1.0;"/><line style="stroke:#181818;stroke-width:1.0;" x1="468" x2="468" y1="74" y2="106.8047"/><polygon fill="#181818" points="464,96.8047,468,106.8047,472,96.8047,468,100.8047" style="stroke:#181818;stroke-width:1.0;"/><line style="stroke:#181818;stroke-width:1.0;" x1="468" x2="468" y1="209.7422" y2="389.0449"/><polygon fill="#181818" points="464,379.0449,468,389.0449,472,379.0449,468,383.0449" style="stroke:#181818;stroke-width:1.0;"/><line style="stroke:#181818;stroke-width:1.0;" x1="320" x2="343" y1="62" y2="62"/><polygon fill="#181818" points="333,58,343,62,333,66,337,62" style="stroke:#181818;stroke-width:1.0;"/><line style="stroke:#181818;stroke-width:1.0;" x1="502" x2="502" y1="30" y2="35"/><line style="stroke:#181818;stroke-width:1.0;" x1="502" x2="170" y1="35" y2="35"/><line style="stroke:#181818;stroke-width:1.0;" x1="170" x2="170" y1="35" y2="50"/><polygon fill="#181818" points="166,40,170,50,174,40,170,44" style="stroke:#181818;stroke-width:1.0;"/><line style="stroke:#181818;stroke-width:1.0;" x1="593" x2="810" y1="62" y2="62"/><line style="stroke:#181818;stroke-width:1.0;" x1="810" x2="810" y1="62" y2="89.2012"/><polygon fill="#181818" points="806,79.2012,810,89.2012,814,79.2012,810,83.2012" style="stroke:#181818;stroke-width:1.0;"/><line style="stroke:#181818;stroke-width:1.0;" x1="810" x2="810" y1="369.0449" y2="389.0449"/><polygon fill="#181818" points="806,379.0449,810,389.0449,814,379.0449,810,383.0449" style="stroke:#181818;stroke-width:1.0;"/><line style="stroke:#181818;stroke-width:1.0;" x1="170" x2="810" y1="389.0449" y2="389.0449"/><line style="stroke:#181818;stroke-width:1.0;" x1="502" x2="502" y1="389.0449" y2="409.0449"/><polygon fill="#181818" points="498,399.0449,502,409.0449,506,399.0449,502,403.0449" style="stroke:#181818;stroke-width:1.0;"/><!--SRC=[XO_BQiCm44Nt_egxQP3n9ezDQL2W2JOnX1hyw2AX2958hK78mHfrLVhjzQCDf2raDvhHcNF7aMmfg3KOAqYITubv5NunnmHbbkr4KJwMLI7IfxGKrM8UWdDCGz2Ric2s8TIsfZ007gxn3tx5ntdUuyl-Owl8jnRTGncdUlMcyPO6RFMDhQiaYNDHfFjur8v2xOsvBSkUaz-osIW3SsTvLCEAjTTQjSBV7xPAdlezB-1ubyQhhZd0FuEkpovrX5c8ktzZ3j3bc2XQ_eqwuVYyaNNQPRMdMWUEclCN]--></g></svg>