<?xml version="1.0" encoding="us-ascii" standalone="no"?><svg xmlns="http://www.w3.org/2000/svg" xmlns:xlink="http://www.w3.org/1999/xlink" contentStyleType="text/css" height="519px" preserveAspectRatio="none" style="width:650px;height:519px;background:#FFFFFF;" version="1.1" viewBox="0 0 650 519" width="650px" zoomAndPan="magnify"><defs/><g><ellipse cx="364" cy="20" fill="#222222" rx="10" ry="10" style="stroke:#222222;stroke-width:1.0;"/><rect fill="#F1F1F1" height="33.9688" rx="12.5" ry="12.5" style="stroke:#181818;stroke-width:0.5;" width="132" x="298" y="50"/><text fill="#000000" font-family="sans-serif" font-size="12" lengthAdjust="spacing" textLength="112" x="308" y="71.1387">l_CycleCnt_u32++</text><rect fill="#F1F1F1" height="33.9688" rx="12.5" ry="12.5" style="stroke:#181818;stroke-width:0.5;" width="97" x="315.5" y="103.9688"/><text fill="#000000" font-family="sans-serif" font-size="12" lengthAdjust="spacing" textLength="77" x="325.5" y="125.1074">iter_u32 = 0</text><polygon fill="#F1F1F1" points="224,218.7422,504,218.7422,516,230.7422,504,242.7422,224,242.7422,212,230.7422,224,218.7422" style="stroke:#181818;stroke-width:0.5;"/><text fill="#000000" font-family="sans-serif" font-size="11" lengthAdjust="spacing" textLength="280" x="224" y="234.5503">Mode_e == Tool_modeRun_e &amp;&amp; Count_u32 != 0</text><text fill="#000000" font-family="sans-serif" font-size="11" lengthAdjust="spacing" textLength="20" x="192" y="228.1479">yes</text><text fill="#000000" font-family="sans-serif" font-size="11" lengthAdjust="spacing" textLength="14" x="516" y="228.1479">no</text><rect fill="#F1F1F1" height="33.9688" rx="12.5" ry="12.5" style="stroke:#181818;stroke-width:0.5;" width="166" x="119" y="252.7422"/><text fill="#000000" font-family="sans-serif" font-size="12" lengthAdjust="spacing" textLength="146" x="129" y="273.8809">Tool_Pop_u8(&amp;l_val_u8)</text><rect fill="#F1F1F1" height="33.9688" rx="12.5" ry="12.5" style="stroke:#181818;stroke-width:0.5;" width="314" x="45" y="306.7109"/><text fill="#000000" font-family="sans-serif" font-size="12" lengthAdjust="spacing" textLength="294" x="55" y="327.8496">l_val_u8 = l_val_u8 XOR (l_CycleCnt_u32 &amp; 0xFF)</text><rect fill="#F1F1F1" height="33.9688" rx="12.5" ry="12.5" style="stroke:#181818;stroke-width:0.5;" width="163" x="120.5" y="367.7773"/><text fill="#000000" font-family="sans-serif" font-size="12" lengthAdjust="spacing" textLength="143" x="130.5" y="388.916">Tool_Push_u8(l_val_u8)</text><rect fill="#F1F1F1" height="33.9688" rx="12.5" ry="12.5" style="stroke:#181818;stroke-width:0.5;" width="168" x="442" y="252.7422"/><text fill="#000000" font-family="sans-serif" font-size="12" lengthAdjust="spacing" textLength="148" x="452" y="273.8809">no-op (bounded timing)</text><polygon fill="#F1F1F1" points="364,407.7461,376,419.7461,364,431.7461,352,419.7461,364,407.7461" style="stroke:#181818;stroke-width:0.5;"/><rect fill="#F1F1F1" height="33.9688" rx="12.5" ry="12.5" style="stroke:#181818;stroke-width:0.5;" width="91" x="318.5" y="451.7461"/><text fill="#000000" font-family="sans-serif" font-size="12" lengthAdjust="spacing" textLength="71" x="328.5" y="472.8848">iter_u32++</text><polygon fill="#F1F1F1" points="262.5,157.9375,465.5,157.9375,477.5,169.9375,465.5,181.9375,262.5,181.9375,250.5,169.9375,262.5,157.9375" style="stroke:#181818;stroke-width:0.5;"/><text fill="#000000" font-family="sans-serif" font-size="11" lengthAdjust="spacing" textLength="23" x="368" y="192.1479">true</text><text fill="#000000" font-family="sans-serif" font-size="11" lengthAdjust="spacing" textLength="203" x="262.5" y="173.7456">iter_u32 &lt; TOOL_BUFFER_SIZE_U32</text><text fill="#000000" font-family="sans-serif" font-size="11" lengthAdjust="spacing" textLength="28" x="222.5" y="167.3433">false</text><ellipse cx="24" cy="216.9375" fill="none" rx="11" ry="11" style="stroke:#222222;stroke-width:1.0;"/><ellipse cx="24" cy="216.9375" fill="#222222" rx="6" ry="6" style="stroke:#222222;stroke-width:1.0;"/><line style="stroke:#181818;stroke-width:1.0;" x1="364" x2="364" y1="30" y2="50"/><polygon fill="#181818" points="360,40,364,50,368,40,364,44" style="stroke:#181818;stroke-width:1.0;"/><line style="stroke:#181818;stroke-width:1.0;" x1="364" x2="364" y1="83.9688" y2="103.9688"/><polygon fill="#181818" points="360,93.9688,364,103.9688,368,93.9688,364,97.9688" style="stroke:#181818;stroke-width:1.0;"/><line style="stroke:#181818;stroke-width:1.0;" x1="202" x2="202" y1="286.7109" y2="306.7109"/><polygon fill="#181818" points="198,296.7109,202,306.7109,206,296.7109,202,300.7109" style="stroke:#181818;stroke-width:1.0;"/><line style="stroke:#181818;stroke-width:1.0;" x1="202" x2="202" y1="340.6797" y2="367.7773"/><polygon fill="#181818" points="198,357.7773,202,367.7773,206,357.7773,202,361.7773" style="stroke:#181818;stroke-width:1.0;"/><line style="stroke:#181818;stroke-width:1.0;" x1="212" x2="202" y1="230.7422" y2="230.7422"/><line style="stroke:#181818;stroke-width:1.0;" x1="202" x2="202" y1="230.7422" y2="252.7422"/><polygon fill="#181818" points="198,242.7422,202,252.7422,206,242.7422,202,246.7422" style="stroke:#181818;stroke-width:1.0;"/><line style="stroke:#181818;stroke-width:1.0;" x1="516" x2="526" y1="230.7422" y2="230.7422"/><line style="stroke:#181818;stroke-width:1.0;" x1="526" x2="526" y1="230.7422" y2="252.7422"/><polygon fill="#181818" points="522,242.7422,526,252.7422,530,242.7422,526,246.7422" style="stroke:#181818;stroke-width:1.0;"/><line style="stroke:#181818;stroke-width:1.0;" x1="202" x2="202" y1="401.7461" y2="419.7461"/><line style="stroke:#181818;stroke-width:1.0;" x1="202" x2="352" y1="419.7461" y2="419.7461"/><polygon fill="#181818" points="342,415.7461,352,419.7461,342,423.7461,346,419.7461" style="stroke:#181818;stroke-width:1.0;"/><line style="stroke:#181818;stroke-width:1.0;" x1="526" x2="526" y1="286.7109" y2="419.7461"/><line style="stroke:#181818;stroke-width:1.0;" x1="526" x2="376" y1="419.7461" y2="419.7461"/><polygon fill="#181818" points="386,415.7461,376,419.7461,386,423.7461,382,419.7461" style="stroke:#181818;stroke-width:1.0;"/><line style="stroke:#181818;stroke-width:1.0;" x1="364" x2="364" y1="431.7461" y2="451.7461"/><polygon fill="#181818" points="360,441.7461,364,451.7461,368,441.7461,364,445.7461" style="stroke:#181818;stroke-width:1.0;"/><line style="stroke:#181818;stroke-width:1.0;" x1="364" x2="364" y1="181.9375" y2="218.7422"/><polygon fill="#181818" points="360,208.7422,364,218.7422,368,208.7422,364,212.7422" style="stroke:#181818;stroke-width:1.0;"/><line style="stroke:#181818;stroke-width:1.0;" x1="364" x2="364" y1="485.7148" y2="495.7148"/><line style="stroke:#181818;stroke-width:1.0;" x1="364" x2="624" y1="495.7148" y2="495.7148"/><polygon fill="#181818" points="620,347.7773,624,337.7773,628,347.7773,624,343.7773" style="stroke:#181818;stroke-width:1.0;"/><line style="stroke:#181818;stroke-width:1.0;" x1="624" x2="624" y1="169.9375" y2="495.7148"/><line style="stroke:#181818;stroke-width:1.0;" x1="624" x2="477.5" y1="169.9375" y2="169.9375"/><polygon fill="#181818" points="487.5,165.9375,477.5,169.9375,487.5,173.9375,483.5,169.9375" style="stroke:#181818;stroke-width:1.0;"/><line style="stroke:#181818;stroke-width:1.0;" x1="250.5" x2="24" y1="169.9375" y2="169.9375"/><line style="stroke:#181818;stroke-width:1.0;" x1="24" x2="24" y1="169.9375" y2="205.9375"/><polygon fill="#181818" points="20,195.9375,24,205.9375,28,195.9375,24,199.9375" style="stroke:#181818;stroke-width:1.0;"/><line style="stroke:#181818;stroke-width:1.0;" x1="364" x2="364" y1="137.9375" y2="157.9375"/><polygon fill="#181818" points="360,147.9375,364,157.9375,368,147.9375,364,151.9375" style="stroke:#181818;stroke-width:1.0;"/><!--SRC=[LL11QiCm4Bph5TEBaGY5a5oANLzgOYYqkBW9b5w4MwzhWI8PIsgRtrUk4qDEsfdLpEokyyteMQfbSVhKL1WlmtQpMcKiLPx62I37EcFifrUQm1Vs7lkgUf8FXxBSrVBryNqd3zkDW7BWVWma6A0wy6VRaYJaEVRMQdcCi0ucCac2meOv43SnHC3tPC1Fv2OnaFuhNkmWmnrFjFnkTAn4DZSlECwtb6zL3Nwz2nAiVyloefejW-idpojBqYxkP-mvszXREu1_n15RQk7LKPcl-QDfLHVVvKBJkI9vlb3NH2F1cFDs-0C0]--></g></svg>